<svg xmlns="http://www.w3.org/2000/svg" width="77" height="76" viewBox="0 0 77 76" fill="none">
  <g clip-path="url(#clip0_6_73)">
    <path d="M47.5764 19.9563C45.2086 19.8487 44.4964 19.8297 38.5 19.8297C32.5036 19.8297 31.7946 19.8518 29.4268 19.9563C23.3342 20.2318 20.498 23.0787 20.2189 29.0447C20.113 31.3817 20.0874 32.0815 20.0874 38C20.0874 43.9185 20.113 44.6183 20.2189 46.9585C20.498 52.9087 23.3214 55.7713 29.4268 56.0468C31.7914 56.1513 32.5036 56.1767 38.5 56.1767C44.4996 56.1767 45.2086 56.1545 47.5764 56.0468C53.669 55.7745 56.502 52.9182 56.7843 46.9585C56.8902 44.6215 56.9126 43.9185 56.9126 38C56.9126 32.0815 56.8902 31.3817 56.7843 29.0447C56.502 23.0818 53.6626 20.2318 47.5764 19.9563ZM38.5 49.3842C32.1315 49.3842 26.966 44.289 26.966 38C26.966 31.7142 32.1315 26.619 38.5 26.619C44.8685 26.619 50.034 31.7142 50.034 38C50.034 44.2858 44.8685 49.3842 38.5 49.3842ZM50.4895 28.8293C49.0009 28.8293 47.7945 27.6387 47.7945 26.1693C47.7945 24.7 49.0009 23.5093 50.4895 23.5093C51.9782 23.5093 53.1845 24.7 53.1845 26.1693C53.1845 27.6355 51.9782 28.8293 50.4895 28.8293ZM45.985 38C45.985 42.0818 42.6323 45.3878 38.5 45.3878C34.3677 45.3878 31.015 42.0818 31.015 38C31.015 33.9182 34.3677 30.6122 38.5 30.6122C42.6323 30.6122 45.985 33.9182 45.985 38ZM38.5 0C17.2384 0 0 17.0145 0 38C0 58.9855 17.2384 76 38.5 76C59.7616 76 77 58.9855 77 38C77 17.0145 59.7616 0 38.5 0ZM60.8236 47.139C60.4546 55.1982 55.9084 59.6632 47.7625 60.0337C45.3658 60.1413 44.599 60.1667 38.5 60.1667C32.401 60.1667 31.6374 60.1413 29.2408 60.0337C21.0788 59.6632 16.5518 55.1918 16.1764 47.139C16.0673 44.7767 16.0417 44.0198 16.0417 38C16.0417 31.9802 16.0673 31.2265 16.1764 28.861C16.5518 20.805 21.082 16.3368 29.2408 15.9695C31.6374 15.8587 32.401 15.8333 38.5 15.8333C44.599 15.8333 45.3658 15.8587 47.7625 15.9695C55.9277 16.34 60.4578 20.8208 60.8236 28.861C60.9327 31.2265 60.9583 31.9802 60.9583 38C60.9583 44.0198 60.9327 44.7767 60.8236 47.139Z" fill="#F26642"/>
  </g>
  <defs>
    <clipPath id="clip0_6_73">
      <rect width="77" height="76" fill="white"/>
    </clipPath>
  </defs>
</svg>