<svg xmlns="http://www.w3.org/2000/svg" width="76" height="76" viewBox="0 0 76 76" fill="none">
  <g clip-path="url(#clip0_6_75)">
    <path d="M38 0C17.0145 0 0 17.0145 0 38C0 58.9855 17.0145 76 38 76C58.9855 76 76 58.9855 76 38C76 17.0145 58.9855 0 38 0ZM31.6667 50.6667H25.3333V31.6667H31.6667V50.6667ZM28.5 28.8452C26.5778 28.8452 25.0167 27.2745 25.0167 25.3333C25.0167 23.3953 26.5747 21.8215 28.5 21.8215C30.4253 21.8215 31.9833 23.3953 31.9833 25.3333C31.9833 27.2745 30.4222 28.8452 28.5 28.8452ZM53.8333 50.6667H47.5063V41.6068C47.5063 35.6503 41.1667 36.1538 41.1667 41.6068V50.6667H34.8333V31.6667H41.1667V35.1278C43.928 30.0105 53.8333 29.6305 53.8333 40.0298V50.6667Z" fill="#F26642"/>
  </g>
  <defs>
    <clipPath id="clip0_6_75">
      <rect width="76" height="76" fill="white"/>
    </clipPath>
  </defs>
</svg>