<svg xmlns="http://www.w3.org/2000/svg" width="77" height="76" viewBox="0 0 77 76" fill="none">
  <g clip-path="url(#clip0_6_77)">
    <path fill-rule="evenodd" clip-rule="evenodd" d="M38.5 0C17.2416 0 0 17.0113 0 38C0 58.9855 17.2416 76 38.5 76C59.7616 76 77 58.9855 77 38C77 17.0113 59.7616 0 38.5 0ZM60.8749 55.5972V54.853L57.3714 51.4583C57.0634 51.2272 56.9094 50.844 56.9736 50.4672V25.5328C56.9094 25.156 57.0634 24.7728 57.3714 24.5417L60.9583 21.147V20.4028H48.5453L39.6967 42.1895L29.629 20.4028H16.6063V21.147L20.8028 26.1345C21.2135 26.4987 21.4252 27.037 21.3675 27.5817V47.177C21.4894 47.8832 21.2648 48.6052 20.7611 49.1213L16.0417 54.7707V55.5148H29.4204V54.7707L24.701 49.1213C24.194 48.6052 23.9534 47.8895 24.0529 47.177V30.229L35.7954 55.5148H37.1589L47.2427 30.229V50.3848C47.2427 50.9232 47.2427 51.0245 46.8866 51.376L43.2612 54.853V55.5972H60.8749Z" fill="#F26642"/>
  </g>
  <defs>
    <clipPath id="clip0_6_77">
      <rect width="77" height="76" fill="white"/>
    </clipPath>
  </defs>
</svg>