<svg xmlns="http://www.w3.org/2000/svg" width="77" height="77" viewBox="0 0 77 77" fill="none">
  <g clip-path="url(#clip0_6_81)">
    <path d="M38.5 -0.216064C17.101 -0.216064 -0.242134 17.1154 -0.242134 38.5C-0.242134 59.8846 17.101 77.216 38.5 77.216C59.899 77.216 77.2421 59.8846 77.2421 38.5C77.2421 17.1154 59.899 -0.216064 38.5 -0.216064ZM57.9316 29.4108V34.6586C55.4648 34.6586 53.0586 34.1747 50.7885 33.2219C49.3357 32.6018 47.9737 31.8154 46.7327 30.8626L46.763 46.9994C46.7478 50.629 45.3101 54.0469 42.7072 56.6179C40.5884 58.7049 37.9098 60.0358 34.989 60.4744C34.308 60.5802 33.6118 60.6256 32.9006 60.6256C29.783 60.6256 26.832 59.6123 24.4106 57.7521C23.9566 57.4043 23.5177 57.0262 23.1091 56.6179C20.2942 53.8352 18.8263 50.0543 19.0835 46.0768C19.2651 43.0521 20.4758 40.1636 22.5037 37.9102C25.1824 34.9157 28.9204 33.2521 32.9157 33.2521C33.6118 33.2521 34.308 33.2975 35.0041 33.4034V35.3392V40.7383C34.3534 40.5265 33.6572 40.4055 32.946 40.4055C29.2987 40.4055 26.3326 43.3849 26.3931 47.0296C26.4234 49.3737 27.7097 51.4154 29.5863 52.5346C30.4792 53.0639 31.4931 53.3966 32.5827 53.4571C33.4302 53.5025 34.2474 53.3815 35.0041 53.1395C37.6071 52.2775 39.4988 49.8275 39.4988 46.9389L39.514 36.1407V16.3895H46.7327C46.7327 17.1003 46.8084 17.796 46.9446 18.4765C47.4894 21.2139 49.033 23.5883 51.182 25.2065C53.0586 26.6129 55.3892 27.4599 57.9165 27.4599H57.9316V29.4108Z" fill="#F26642"/>
  </g>
  <defs>
    <clipPath id="clip0_6_81">
      <rect width="77" height="77" fill="white"/>
    </clipPath>
  </defs>
</svg>